<svg aria-hidden="true" fill="none" height="200" style="display:block;overflow:visible" viewBox="0 0 100 100" width="200" xmlns="http://www.w3.org/2000/svg"><defs><radialGradient cx="56%" cy="44%" id="facehash-analyst-200-seed-gradient" r="70%"><stop offset="0%" stop-color="#ffffff" stop-opacity="0.15"></stop><stop offset="60%" stop-color="#ffffff" stop-opacity="0"></stop></radialGradient></defs><rect fill="#a78bfa" height="100" width="100" x="0" y="0"></rect><rect fill="url(#facehash-analyst-200-seed-gradient)" height="100" width="100" x="0" y="0"></rect><g transform="translate(-5 5) translate(50 50) skewX(3.5) skewY(-1.75) scale(0.92 0.92) translate(-50 -50)"><g transform="translate(20 34.073170731707314) scale(0.7317073170731707 0.7317073170731707)"><g><path d="M3.53125 0.164063C4.90133 0.164063 5.58673 0.163893 6.08301 0.485352C6.31917 0.638428 6.52075 0.840012 6.67383 1.07617C6.99555 1.57252 6.99512 2.25826 6.99512 3.62891C6.99512 4.99911 6.99536 5.68438 6.67383 6.18066C6.52075 6.41682 6.31917 6.61841 6.08301 6.77148C5.58672 7.09305 4.90147 7.09277 3.53125 7.09277C2.16062 7.09277 1.47486 7.09319 0.978516 6.77148C0.742356 6.61841 0.540772 6.41682 0.387695 6.18066C0.0662401 5.68439 0.0664063 4.999 0.0664063 3.62891C0.0664063 2.25838 0.0660571 1.57251 0.387695 1.07617C0.540772 0.840012 0.742356 0.638428 0.978516 0.485352C1.47485 0.163744 2.16076 0.164063 3.53125 0.164063Z" fill="currentColor"></path><path d="M25.1836 0.164063C26.5542 0.164063 27.24 0.163638 27.7363 0.485352C27.9724 0.638384 28.1731 0.8401 28.3262 1.07617C28.6479 1.57252 28.6484 2.25825 28.6484 3.62891C28.6484 4.99931 28.6478 5.68436 28.3262 6.18066C28.1731 6.41678 27.9724 6.61842 27.7363 6.77148C27.24 7.09321 26.5542 7.09277 25.1836 7.09277H11.3262C9.95557 7.09277 9.26978 7.09317 8.77344 6.77148C8.53728 6.61841 8.33569 6.41682 8.18262 6.18066C7.86115 5.68438 7.86133 4.99902 7.86133 3.62891C7.86133 2.25835 7.86096 1.57251 8.18262 1.07617C8.33569 0.840012 8.53728 0.638428 8.77344 0.485352C9.26977 0.163768 9.95572 0.164063 11.3262 0.164063H25.1836Z" fill="currentColor"></path></g><g><path d="M78.2034 7.09325C76.8333 7.09325 76.1479 7.09342 75.6516 6.77197C75.4155 6.61889 75.2139 6.4173 75.0608 6.18114C74.7391 5.6848 74.7395 4.99905 74.7395 3.62841C74.7395 2.2582 74.7393 1.57294 75.0608 1.07665C75.2139 0.840493 75.4155 0.638909 75.6516 0.485832C76.1479 0.164271 76.8332 0.164543 78.2034 0.164543C79.574 0.164543 80.2598 0.164122 80.7561 0.485832C80.9923 0.638909 81.1939 0.840493 81.347 1.07665C81.6684 1.57293 81.6682 2.25831 81.6682 3.62841C81.6682 4.99894 81.6686 5.68481 81.347 6.18114C81.1939 6.4173 80.9923 6.61889 80.7561 6.77197C80.2598 7.09357 79.5739 7.09325 78.2034 7.09325Z" fill="currentColor"></path><path d="M56.5511 7.09325C55.1804 7.09325 54.4947 7.09368 53.9983 6.77197C53.7622 6.61893 53.5615 6.41722 53.4085 6.18114C53.0868 5.6848 53.0862 4.99907 53.0862 3.62841C53.0862 2.258 53.0868 1.57296 53.4085 1.07665C53.5615 0.840539 53.7622 0.638898 53.9983 0.485832C54.4947 0.164105 55.1804 0.164543 56.5511 0.164543H70.4085C71.7791 0.164543 72.4649 0.164146 72.9612 0.485832C73.1974 0.638909 73.399 0.840493 73.552 1.07665C73.8735 1.57293 73.8733 2.25829 73.8733 3.62841C73.8733 4.99896 73.8737 5.68481 73.552 6.18114C73.399 6.4173 73.1974 6.61889 72.9612 6.77197C72.4649 7.09355 71.7789 7.09325 70.4085 7.09325H56.5511Z" fill="currentColor"></path></g></g></g></svg>