<svg aria-hidden="true" fill="none" height="200" style="display:block;overflow:visible" viewBox="0 0 100 100" width="200" xmlns="http://www.w3.org/2000/svg"><defs><radialGradient cx="50%" cy="44%" id="facehash-reporter-200-seed-gradient" r="70%"><stop offset="0%" stop-color="#ffffff" stop-opacity="0.15"></stop><stop offset="60%" stop-color="#ffffff" stop-opacity="0"></stop></radialGradient></defs><rect fill="#f472b6" height="100" width="100" x="0" y="0"></rect><rect fill="url(#facehash-reporter-200-seed-gradient)" height="100" width="100" x="0" y="0"></rect><g transform="translate(0 5) translate(50 50) skewX(3.5) skewY(0) scale(1 0.92) translate(-50 -50)"><g transform="translate(20 32.714285714285715) scale(0.9523809523809523 0.9523809523809523)"><g><path d="M0 5.06511C0 4.94513 0 4.88513 0.00771184 4.79757C0.0483059 4.33665 0.341025 3.76395 0.690821 3.46107C0.757274 3.40353 0.783996 3.38422 0.837439 3.34559C2.40699 2.21129 6.03888 0 10.5 0C14.9611 0 18.593 2.21129 20.1626 3.34559C20.216 3.38422 20.2427 3.40353 20.3092 3.46107C20.659 3.76395 20.9517 4.33665 20.9923 4.79757C21 4.88513 21 4.94513 21 5.06511C21 6.01683 21 6.4927 20.9657 6.6754C20.7241 7.96423 19.8033 8.55941 18.5289 8.25054C18.3483 8.20676 17.8198 7.96876 16.7627 7.49275C14.975 6.68767 12.7805 6 10.5 6C8.21954 6 6.02504 6.68767 4.23727 7.49275C3.18025 7.96876 2.65174 8.20676 2.47108 8.25054C1.19668 8.55941 0.275917 7.96423 0.0342566 6.6754C0 6.4927 0 6.01683 0 5.06511Z" fill="currentColor"></path></g><g><path d="M42 5.06511C42 4.94513 42 4.88513 42.0077 4.79757C42.0483 4.33665 42.341 3.76395 42.6908 3.46107C42.7573 3.40353 42.784 3.38422 42.8374 3.34559C44.407 2.21129 48.0389 0 52.5 0C56.9611 0 60.593 2.21129 62.1626 3.34559C62.216 3.38422 62.2427 3.40353 62.3092 3.46107C62.659 3.76395 62.9517 4.33665 62.9923 4.79757C63 4.88513 63 4.94513 63 5.06511C63 6.01683 63 6.4927 62.9657 6.6754C62.7241 7.96423 61.8033 8.55941 60.5289 8.25054C60.3483 8.20676 59.8198 7.96876 58.7627 7.49275C56.975 6.68767 54.7805 6 52.5 6C50.2195 6 48.025 6.68767 46.2373 7.49275C45.1802 7.96876 44.6517 8.20676 44.4711 8.25054C43.1967 8.55941 42.2759 7.96423 42.0343 6.6754C42 6.4927 42 6.01683 42 5.06511Z" fill="currentColor"></path></g></g></g></svg>