<svg aria-hidden="true" fill="none" height="200" style="display:block;overflow:visible" viewBox="0 0 100 100" width="200" xmlns="http://www.w3.org/2000/svg"><defs><radialGradient cx="56%" cy="50%" id="facehash-tracker-200-seed-gradient" r="70%"><stop offset="0%" stop-color="#ffffff" stop-opacity="0.15"></stop><stop offset="60%" stop-color="#ffffff" stop-opacity="0"></stop></radialGradient></defs><rect fill="#fbbf24" height="100" width="100" x="0" y="0"></rect><rect fill="url(#facehash-tracker-200-seed-gradient)" height="100" width="100" x="0" y="0"></rect><g transform="translate(-5 0) translate(50 50) skewX(0) skewY(-1.75) scale(0.92 1) translate(-50 -50)"><g transform="translate(20 29.857142857142858) scale(0.9523809523809523 0.9523809523809523)"><g><path d="M14.4 7.2C14.4 11.1765 11.1765 14.4 7.2 14.4C3.22355 14.4 0 11.1765 0 7.2C0 3.22355 3.22355 0 7.2 0C11.1765 0 14.4 3.22355 14.4 7.2Z" fill="currentColor"></path></g><g><path d="M62.4 7.2C62.4 11.1765 59.1765 14.4 55.2 14.4C51.2236 14.4 48 11.1765 48 7.2C48 3.22355 51.2236 0 55.2 0C59.1765 0 62.4 3.22355 62.4 7.2Z" fill="currentColor"></path></g></g></g></svg>